<svg width="14" height="16" viewBox="0 0 14 16" fill="none" xmlns="http://www.w3.org/2000/svg">
<path d="M10.3224 11.3548C10.3224 10.9272 9.97573 10.5806 9.54814 10.5806H3.87091C3.44332 10.5806 3.09668 10.9272 3.09668 11.3548C3.09668 11.7824 3.44332 12.129 3.87091 12.129H9.54814C9.97574 12.129 10.3224 11.7824 10.3224 11.3548Z" fill="black"/>
<path d="M3.09668 8C3.09668 7.57241 3.44332 7.22577 3.87091 7.22577H9.54814C9.97574 7.22577 10.3224 7.57241 10.3224 8C10.3224 8.42759 9.97573 8.77423 9.54814 8.77423H3.87091C3.44332 8.77423 3.09668 8.42759 3.09668 8Z" fill="black"/>
<path d="M6.96759 4.64522C6.96759 4.21763 6.62095 3.871 6.19336 3.871H3.87091C3.44332 3.871 3.09668 4.21763 3.09668 4.64522C3.09668 5.07282 3.44332 5.41945 3.87091 5.41945H6.19336C6.62095 5.41945 6.96759 5.07282 6.96759 4.64522Z" fill="black"/>
<path fill-rule="evenodd" clip-rule="evenodd" d="M11.6127 15.9998H1.80637L1.80656 16C1.32735 16 0.867984 15.8096 0.529208 15.4708C0.190449 15.132 0 14.6726 0 14.1934V1.80656C0 1.32735 0.190429 0.867985 0.529208 0.529208C0.868003 0.190449 1.3274 0 1.80656 0H9.18101C9.62099 0 10.043 0.174783 10.3541 0.485898L12.9333 3.06515C13.2444 3.37626 13.4192 3.79822 13.4192 4.23821V14.1933C13.4192 14.6725 13.2288 15.1318 12.89 15.4706C12.5512 15.8094 12.0918 15.9998 11.6127 15.9998ZM1.80637 1.54838C1.66381 1.54838 1.54824 1.66394 1.54824 1.80651L1.54813 14.1933C1.54813 14.3358 1.66369 14.4514 1.80626 14.4514H11.6125C11.6811 14.4514 11.7466 14.4242 11.7951 14.3758C11.8435 14.3274 11.8707 14.2619 11.8707 14.1933V5.24412C11.8707 4.91327 11.6025 4.64505 11.2716 4.64505H9.37306C9.0422 4.64505 8.77399 4.37684 8.77399 4.04599V2.14745C8.77399 1.81659 8.50578 1.54838 8.17492 1.54838H1.80637Z" fill="black"/>
</svg>
