<svg width="16" height="16" viewBox="0 0 16 16" fill="none" xmlns="http://www.w3.org/2000/svg">
<path d="M13.2416 6.1776C13.5256 6.4643 13.5256 6.92917 13.2416 7.21587L8.7714 11.7285C8.34535 12.1586 7.65465 12.1586 7.2286 11.7285L4.94025 9.41842C4.65625 9.13172 4.65625 8.66685 4.94025 8.38015C5.22434 8.0934 5.68475 8.0934 5.96884 8.38015L8 10.4307L12.213 6.1776C12.4971 5.89085 12.9575 5.89085 13.2416 6.1776Z" fill="black"/>
<path fill-rule="evenodd" clip-rule="evenodd" d="M10.8175 2.20255H13.8182C15.0232 2.20255 16 3.18866 16 4.4051V7.92397C16 8.50813 15.7702 9.06836 15.361 9.48142L9.54279 15.3549C8.6907 16.215 7.3093 16.215 6.45721 15.3549L0.639027 9.48142C0.229847 9.06836 0 8.50813 0 7.92397V4.4051C0 3.18866 0.976829 2.20255 2.18182 2.20255H5.18253C5.5055 0.935922 6.64453 0 8 0C9.35547 0 10.4945 0.935922 10.8175 2.20255ZM8 5.87347C9.35547 5.87347 10.4945 4.93754 10.8175 3.67092H13.8182C14.2198 3.67092 14.5455 3.99961 14.5455 4.4051V7.92397C14.5455 8.11868 14.4688 8.30545 14.3325 8.44311L8.51429 14.3166C8.2302 14.6033 7.7698 14.6033 7.48571 14.3166L1.66752 8.44311C1.53116 8.30545 1.45455 8.11868 1.45455 7.92397V4.4051C1.45455 3.99961 1.78018 3.67092 2.18182 3.67092H5.18253C5.5055 4.93754 6.64453 5.87347 8 5.87347Z" fill="black"/>
</svg>
