<svg width="24" height="22" viewBox="0 0 24 22" fill="none" xmlns="http://www.w3.org/2000/svg">
<path d="M0.800326 0C0.358396 0 0 0.352658 0 0.787543C0 1.22241 0.358196 1.57509 0.800326 1.57509H3.35126L6.10222 15.3475C6.21108 15.8284 6.53131 16.2284 6.93584 16.2254H20.2738C20.6966 16.2312 21.0855 15.854 21.0855 15.4378C21.0855 15.0218 20.6966 14.6444 20.2738 14.6503H7.58607L7.24425 13.0752H21.3411C21.6994 13.0726 22.0379 12.804 22.1162 12.4599L23.9835 3.58498C24.0875 3.12795 23.6843 2.62864 23.2083 2.62513H5.21873L4.78517 0.623622C4.70944 0.273894 4.36482 -0.000234451 4.00161 0.000140547L0.800326 0ZM5.55198 4.20007H22.1997L20.7075 11.5H6.91131L5.55198 4.20007ZM9.60344 16.75C8.1396 16.75 6.93584 17.9345 6.93584 19.375C6.93584 20.8155 8.1396 22 9.60344 22C11.0673 22 12.271 20.8155 12.271 19.375C12.271 17.9345 11.0673 16.75 9.60344 16.75ZM17.6062 16.75C16.1424 16.75 14.9386 17.9345 14.9386 19.375C14.9386 20.8155 16.1424 22 17.6062 22C19.0701 22 20.2738 20.8155 20.2738 19.375C20.2738 17.9345 19.0701 16.75 17.6062 16.75ZM9.60344 18.3251C10.2022 18.3251 10.6704 18.7858 10.6704 19.375C10.6704 19.9642 10.2022 20.4249 9.60344 20.4249C9.00466 20.4249 8.5365 19.964 8.5365 19.375C8.5365 18.7858 9.00485 18.3251 9.60344 18.3251ZM17.6062 18.3251C18.205 18.3251 18.6732 18.7858 18.6732 19.375C18.6732 19.9642 18.205 20.4249 17.6062 20.4249C17.0074 20.4249 16.5393 19.964 16.5393 19.375C16.5393 18.7858 17.0076 18.3251 17.6062 18.3251Z" fill="white"/>
</svg>
