<svg width="12" height="12" viewBox="0 0 12 12" fill="none" xmlns="http://www.w3.org/2000/svg">
<path d="M0.366921 11.6331C0.856149 12.1223 1.64935 12.1223 2.13857 11.6331L9.49451 4.27715L9.49451 8.37363C9.49451 9.0655 10.0554 9.62637 10.7473 9.62637C11.4391 9.62637 12 9.0655 12 8.37363L12 1.25275C12 0.560873 11.4391 -4.90332e-08 10.7473 -1.09519e-07L3.62638 -7.32046e-07C2.9345 -7.92531e-07 2.37363 0.560872 2.37363 1.25275C2.37363 1.94462 2.9345 2.50549 3.62638 2.50549L7.72285 2.50549L0.366922 9.86143C-0.122308 10.3507 -0.122308 11.1438 0.366921 11.6331Z" fill="#FF4343"/>
</svg>
