<svg width="16" height="16" viewBox="0 0 16 16" fill="none" xmlns="http://www.w3.org/2000/svg">
<path d="M1.52381 0.755582V14.4889H15.2381C15.5103 14.4889 15.7618 14.6329 15.8979 14.8667C16.034 15.1004 16.034 15.3885 15.8979 15.6222C15.7618 15.856 15.5103 16 15.2381 16H0.761903C0.559841 16 0.366039 15.9204 0.223166 15.7787C0.0802293 15.637 0 15.4448 0 15.2444V0.755582C0 0.485638 0.145237 0.236224 0.380952 0.101232C0.616674 -0.033744 0.907132 -0.033744 1.14286 0.101232C1.37858 0.236208 1.52381 0.485617 1.52381 0.755582ZM4.4418 11.0821L6.97131 7.30436L9.36369 9.6768C9.50496 9.82382 9.69988 9.90818 9.90464 9.91102C10.1178 9.90055 10.3169 9.80186 10.4532 9.63902L14.2627 5.1057C14.4369 4.89785 14.4861 4.61364 14.3917 4.36006C14.2973 4.10655 14.0736 3.92224 13.805 3.8765C13.5364 3.83085 13.2636 3.93073 13.0894 4.13859L9.81321 8.03725L7.35236 5.59691C7.19117 5.43643 6.96592 5.35608 6.73863 5.37804C6.51132 5.4 6.30593 5.52191 6.17903 5.71024L3.13142 10.2436C3.00554 10.4096 2.95411 10.6195 2.98919 10.8242C3.02428 11.0289 3.14277 11.2104 3.31681 11.3258C3.49086 11.4412 3.70514 11.4806 3.90935 11.4344C4.11356 11.3884 4.28959 11.261 4.39618 11.0822L4.4418 11.0821Z" fill="black"/>
</svg>
