<svg width="12" height="16" viewBox="0 0 12 16" fill="none" xmlns="http://www.w3.org/2000/svg">
<path d="M5.24977 3.5H6.74979L6.7498 4.24995H8.24982L8.24994 5.7501H5.99997C5.58678 5.7501 5.25002 6.08609 5.25002 6.50005C5.25002 6.91401 5.58678 7.25 5.99997 7.25C7.24048 7.25 8.24994 8.25946 8.24994 9.49997C8.24994 10.4757 7.6214 11.3007 6.74992 11.6112V12.4999H5.24989V11.7499H3.74987V10.2499L5.99984 10.2498C6.41303 10.2498 6.74979 9.9138 6.74979 9.49984C6.74979 9.08588 6.41303 8.74989 5.99984 8.74989C4.75934 8.74989 3.74987 7.74043 3.74987 6.49992C3.74987 5.52347 4.37842 4.69918 5.24977 4.38868V3.5Z" fill="white"/>
<path fill-rule="evenodd" clip-rule="evenodd" d="M0 2.99992C0 1.34545 1.34545 0 3.00005 0L8.56043 6.42496e-05L12 3.43931L11.9999 13.0001C11.9999 14.6546 10.6544 16 8.99995 16H2.99992C1.34545 16 0 14.6546 0 13.0001V2.99992ZM8.99983 14.5001C9.82711 14.5001 10.4999 13.8273 10.4999 13.0001L10.4999 4.0603L7.93945 1.49983H3.00011C2.17283 1.49983 1.50009 2.17257 1.50009 2.99986V13.0001C1.50009 13.8273 2.17283 14.5001 3.00011 14.5001H8.99983Z" fill="white"/>
</svg>
